<svg width="63" height="43" viewBox="0 0 63 43" fill="none" xmlns="http://www.w3.org/2000/svg">
<g opacity="0.4">
<path opacity="0.5" d="M41.887 21.4723L34.9211 28.4894L31.4894 25.0065L34.9723 21.4723L31.4894 17.9894L28.0065 14.5065L21.0406 7.54061L7.0577 21.4723L21.0406 35.4552L28.0065 28.4894L31.4894 31.9211L21.0406 42.3699L0.143066 21.4723L21.0406 0.625977L31.4894 11.0235L34.9211 14.5065L41.887 21.4723Z" fill="#050023"/>
<path opacity="0.5" d="M62.7847 21.2672L41.8871 42.1648L31.4896 31.716L28.0066 28.2843L21.0408 21.2672L28.0066 14.3014L31.4896 17.7843L27.9554 21.2672L31.4896 24.8014L41.8871 35.2502L55.87 21.2672L41.8871 7.33553L34.9213 14.3014L31.4896 10.8185L41.8871 0.420898L62.7847 21.2672Z" fill="#050023"/>
<g opacity="0.3">
<path opacity="0.5" d="M29.7481 26.7992L31.4895 28.5406L33.231 30.2821L41.9383 38.9894L59.3529 21.5748L41.9383 4.16016L33.231 12.8675L34.9725 14.6089L41.9383 7.59185L55.87 21.5748L41.9383 35.5065L34.9725 28.5406L33.231 26.7992L31.4895 25.0577L27.9554 21.5748L31.4895 18.0406L29.7481 16.2992L24.5237 21.5748L29.7481 26.7992Z" fill="#050023"/>
<path opacity="0.5" d="M34.9723 14.6085L33.2309 12.867L31.4894 11.1256L21.0406 0.676758L0.143066 21.5743L21.0406 42.4207L31.4894 32.0231L29.7479 30.2816L21.0406 38.989L3.62599 21.5743L21.0406 4.15969L29.7479 12.867L31.4894 14.5572L33.2309 16.2987L38.4553 21.5743L33.2309 26.7987L34.9723 28.5402L41.9382 21.5743L34.9723 14.6085Z" fill="#050023"/>
<path opacity="0.5" d="M33.2309 16.2992L31.4894 14.5577L29.7479 12.8675L21.0406 4.16016L3.62598 21.5748L21.0406 38.9894L29.7479 30.2821L28.0065 28.5406L21.0406 35.5065L7.10891 21.5748L21.0406 7.59185L28.0065 14.5577L29.7479 16.2992L31.4894 18.0406L35.0235 21.5748L31.4894 25.0577L33.2309 26.7992L38.4552 21.5748L33.2309 16.2992Z" fill="#050023"/>
<path opacity="0.5" d="M41.9383 0.676758L31.4896 11.1256L33.231 12.867L41.9383 4.15969L59.353 21.5743L41.9383 38.989L33.231 30.2816L31.4896 28.5402L29.7481 26.7987L24.5237 21.5743L29.7481 16.2987L28.0066 14.5572L21.0408 21.5743L28.0066 28.5402L31.4896 32.0231L41.9383 42.4207L62.8359 21.5743L41.9383 0.676758Z" fill="#050023"/>
</g>
<path opacity="0.5" d="M31.4895 17.9898L28.0066 14.5068L23.7554 18.7581L28.1603 21.2678L31.4895 17.9898Z" fill="#050023"/>
<path opacity="0.5" d="M31.4895 11.0236L34.9724 14.5065L40.4529 9.026C39.531 8.10405 38.0968 6.77234 36.9188 5.64551L31.4895 11.0236Z" fill="#050023"/>
<path opacity="0.5" d="M31.4894 31.921L28.0064 28.4893L23.3455 33.1502L26.7772 36.6332L31.4894 31.921Z" fill="#050023"/>
<path opacity="0.5" d="M34.9212 28.4889L38.2505 25.1084L34.3578 22.1377L31.4895 25.006L34.9212 28.4889Z" fill="#050023"/>
</g>
</svg>
