<svg width="44" height="43" viewBox="0 0 44 43" fill="none" xmlns="http://www.w3.org/2000/svg">
<g opacity="0.4">
<path opacity="0.5" d="M29.295 25.8101L25.1199 29.9853L21.5909 33.5143L12.9921 42.1131C11.998 43.1072 10.4075 43.1072 9.46309 42.1131C8.96605 41.6161 8.71753 40.9699 8.71753 40.3237C8.71753 39.6776 8.96605 39.0314 9.46309 38.5344L18.0619 29.9356L21.5909 26.4066L25.7661 22.2314L29.295 25.8101Z" fill="#050023"/>
<path opacity="0.5" d="M43.0133 11.0975C43.0133 11.7437 42.7647 12.3898 42.2677 12.8868L32.8239 22.3306L29.2949 18.8017L38.7387 9.35787C39.7328 8.36378 41.2736 8.36378 42.2677 9.35787C42.7647 9.8052 43.0133 10.4514 43.0133 11.0975Z" fill="#050023"/>
<path opacity="0.5" d="M35.3092 3.39439C35.3092 4.04054 35.0607 4.68668 34.5636 5.18372L17.4157 22.3317L13.8867 18.8027L18.0619 14.6275L21.5909 11.0985L31.0346 1.65474C32.0287 0.660659 33.5696 0.660659 34.5636 1.65474C35.0607 2.10208 35.3092 2.74823 35.3092 3.39439Z" fill="#050023"/>
<path opacity="0.5" d="M13.8868 25.8101L5.28798 34.409C4.2939 35.403 2.75307 35.403 1.75899 34.409C1.26195 33.9119 1.01343 33.2658 1.01343 32.6196C1.01343 31.9735 1.26195 31.3273 1.75899 30.8303L10.3578 22.2314L13.8868 25.8101Z" fill="#050023"/>
<path opacity="0.5" d="M21.5909 11.0487L18.0619 14.5777L8.61812 5.13393C7.62404 4.13985 7.62404 2.59902 8.61812 1.60494C9.11516 1.1079 9.76132 0.859375 10.4075 0.859375C11.0536 0.859375 11.6998 1.1079 12.1968 1.60494L21.5909 11.0487Z" fill="#050023"/>
<path opacity="0.5" d="M41.4229 34.4599C40.9259 34.9569 40.2797 35.2055 39.6336 35.2055C38.9874 35.2055 38.3413 34.9569 37.8442 34.4599L21.5413 18.1569L25.0703 14.6279L29.2454 18.8031L32.7744 22.3321L41.3732 30.9309C42.417 31.8753 42.417 33.4658 41.4229 34.4599Z" fill="#050023"/>
<path opacity="0.5" d="M21.5909 26.457L18.0619 29.986L0.914019 12.838C-0.0800637 11.844 -0.0800637 10.2534 0.914019 9.30904C1.41106 8.812 2.05721 8.56348 2.70337 8.56348C3.34952 8.56348 3.99568 8.812 4.49272 9.30904L13.9365 18.7528L17.4655 22.2818L21.5909 26.457Z" fill="#050023"/>
<path opacity="0.5" d="M33.7683 42.1132C33.2713 42.6102 32.6251 42.8587 31.979 42.8587C31.3328 42.8587 30.6867 42.6102 30.1896 42.1132L21.5908 33.5143L25.1198 29.9854L33.7683 38.5842C34.7127 39.5782 34.7127 41.1688 33.7683 42.1132Z" fill="#050023"/>
</g>
</svg>
