<svg width="44" height="43" viewBox="0 0 44 43" fill="none" xmlns="http://www.w3.org/2000/svg">
<g opacity="0.4">
<path opacity="0.5" d="M29.4769 25.8101L25.3018 29.9853L21.7728 33.5143L13.174 42.1131C12.1799 43.1072 10.5894 43.1072 9.64498 42.1131C9.14793 41.6161 8.89941 40.9699 8.89941 40.3237C8.89941 39.6776 9.14793 39.0314 9.64498 38.5344L18.2438 29.9356L21.7728 26.4066L25.9479 22.2314L29.4769 25.8101Z" fill="#050023"/>
<path opacity="0.5" d="M43.1949 11.0975C43.1949 11.7437 42.9464 12.3898 42.4493 12.8868L33.0056 22.3306L29.4766 18.8017L38.9203 9.35787C39.9144 8.36378 41.4553 8.36378 42.4493 9.35787C42.9464 9.8052 43.1949 10.4514 43.1949 11.0975Z" fill="#050023"/>
<path opacity="0.5" d="M35.4908 3.39439C35.4908 4.04054 35.2423 4.68668 34.7453 5.18372L17.5974 22.3317L14.0684 18.8027L18.2435 14.6275L21.7725 11.0985L31.2163 1.65474C32.2104 0.660659 33.7512 0.660659 34.7453 1.65474C35.2423 2.10208 35.4908 2.74823 35.4908 3.39439Z" fill="#050023"/>
<path opacity="0.5" d="M14.0687 25.8101L5.46987 34.409C4.47579 35.403 2.93496 35.403 1.94087 34.409C1.44383 33.9119 1.19531 33.2658 1.19531 32.6196C1.19531 31.9735 1.44383 31.3273 1.94087 30.8303L10.5397 22.2314L14.0687 25.8101Z" fill="#050023"/>
<path opacity="0.5" d="M21.7725 11.0487L18.2435 14.5777L8.79976 5.13393C7.80568 4.13985 7.80568 2.59902 8.79976 1.60494C9.2968 1.1079 9.94296 0.859375 10.5891 0.859375C11.2353 0.859375 11.8814 1.1079 12.3785 1.60494L21.7725 11.0487Z" fill="#050023"/>
<path opacity="0.5" d="M41.6043 34.4599C41.1073 34.9569 40.4611 35.2055 39.815 35.2055C39.1688 35.2055 38.5227 34.9569 38.0256 34.4599L21.7227 18.1569L25.2517 14.6279L29.4268 18.8031L32.9558 22.3321L41.5546 30.9309C42.5984 31.8753 42.5984 33.4658 41.6043 34.4599Z" fill="#050023"/>
<path opacity="0.5" d="M21.7726 26.457L18.2436 29.986L1.09566 12.838C0.101577 11.844 0.101577 10.2534 1.09566 9.30904C1.5927 8.812 2.23885 8.56348 2.88501 8.56348C3.53116 8.56348 4.17732 8.812 4.67436 9.30904L14.1181 18.7528L17.6471 22.2818L21.7726 26.457Z" fill="#050023"/>
<path opacity="0.5" d="M33.95 42.1132C33.4529 42.6102 32.8068 42.8587 32.1606 42.8587C31.5145 42.8587 30.8683 42.6102 30.3713 42.1132L21.7725 33.5143L25.3015 29.9854L33.95 38.5842C34.8944 39.5782 34.8944 41.1688 33.95 42.1132Z" fill="#050023"/>
</g>
</svg>
