<svg width="70" height="37" viewBox="0 0 70 37" fill="none" xmlns="http://www.w3.org/2000/svg">
<g opacity="0.4">
<path opacity="0.5" d="M41.1854 19.9986C41.1854 20.5156 40.9786 21.0327 40.565 21.4463L31.1551 30.8562C24.1751 37.8361 12.8005 37.8361 5.82058 30.8562C2.45988 27.4955 0.546875 22.9973 0.546875 18.189C0.546875 13.3806 2.40818 8.88242 5.82058 5.52173C9.18128 2.16103 13.6794 0.248047 18.4878 0.248047C23.2962 0.248047 27.7944 2.10933 31.1551 5.52173C31.9823 6.34898 31.9823 7.64157 31.1551 8.41712C30.3278 9.24436 29.0352 9.24436 28.2597 8.41712C25.6745 5.83197 22.1587 4.38429 18.4878 4.38429C14.8169 4.38429 11.3528 5.83197 8.71595 8.41712C6.1308 11.0023 4.68312 14.5181 4.68312 18.189C4.68312 21.8599 6.1308 25.324 8.71595 27.9608C14.0931 33.338 22.8826 33.338 28.2597 27.9608L37.6696 18.5509C38.4969 17.7236 39.7895 17.7236 40.565 18.5509C40.9786 18.9645 41.1854 19.4815 41.1854 19.9986Z" fill="#050023"/>
<path opacity="0.5" d="M26.6568 12.0877C26.6568 12.6047 26.4499 13.1217 26.0363 13.5353C25.2091 14.3626 23.9165 14.3626 23.1409 13.5353C20.5558 10.9502 16.3679 10.9502 13.8344 13.5353C12.5935 14.7762 11.9214 16.4307 11.9214 18.1886C11.9214 19.9465 12.5935 21.601 13.8344 22.8419C15.0753 24.0828 16.7298 24.7549 18.4877 24.7549C20.2456 24.7549 21.9001 24.0828 23.1409 22.8419C23.9682 22.0146 25.2608 22.0146 26.0363 22.8419C26.8636 23.6691 26.8636 24.9617 26.0363 25.7373C24.0199 27.7537 21.3313 28.8911 18.4877 28.8911C15.644 28.8911 12.9555 27.7537 10.939 25.7373C8.92262 23.7209 7.78516 21.0323 7.78516 18.1886C7.78516 15.3449 8.92262 12.6564 10.939 10.64C15.127 6.45204 21.9001 6.45204 26.088 10.64C26.5016 11.0536 26.6568 11.5706 26.6568 12.0877Z" fill="#050023"/>
<path opacity="0.5" d="M69.0531 18.1883C69.0531 22.9967 67.1918 27.4949 63.7794 30.8556C56.7995 37.8355 45.4248 37.8355 38.4449 30.8556C37.6177 30.0283 37.6177 28.7358 38.4449 27.9602C39.2722 27.133 40.5648 27.133 41.3403 27.9602C46.7174 33.3373 55.5069 33.3373 60.884 27.9602C63.4692 25.3751 64.9169 21.8592 64.9169 18.1883C64.9169 14.5174 63.4692 11.0533 60.884 8.41649C58.2989 5.83134 54.7831 4.38366 51.1122 4.38366C47.4413 4.38366 43.9772 5.83134 41.3403 8.41649L31.9304 17.8781C31.1031 18.7054 29.8105 18.7054 29.035 17.8781C28.2077 17.0509 28.2077 15.7583 29.035 14.9828L38.4449 5.57282C45.4248 -1.40709 56.7995 -1.40709 63.7794 5.57282C67.1918 8.93352 69.0531 13.4317 69.0531 18.1883Z" fill="#050023"/>
<path opacity="0.5" d="M61.815 18.1886C61.815 21.0323 60.6775 23.7209 58.6611 25.7373C56.6447 27.7537 53.9561 28.8911 51.1124 28.8911C48.2688 28.8911 45.5802 27.7537 43.5638 25.7373C42.7365 24.91 42.7365 23.6174 43.5638 22.8419C44.391 22.0146 45.6836 22.0146 46.4592 22.8419C47.7 24.0828 49.3545 24.7549 51.1124 24.7549C52.8703 24.7549 54.5248 24.0828 55.7657 22.8419C57.0066 21.601 57.6787 19.9465 57.6787 18.1886C57.6787 16.4307 57.0066 14.7762 55.7657 13.5353C53.1806 10.9502 48.9926 10.9502 46.4592 13.5353C45.6319 14.3626 44.3393 14.3626 43.5638 13.5353C42.7365 12.7081 42.7365 11.4155 43.5638 10.64C47.7517 6.45204 54.5248 6.45204 58.7128 10.64C60.7292 12.6564 61.815 15.3449 61.815 18.1886Z" fill="#050023"/>
</g>
</svg>
