<svg width="39" height="43" viewBox="0 0 39 43" fill="none" xmlns="http://www.w3.org/2000/svg">
<g opacity="0.4">
<path opacity="0.5" d="M29.0878 42.9912C28.1125 42.9912 27.0723 42.6011 26.2921 41.8209C24.7317 40.2606 24.7317 37.79 26.2921 36.2296C32.5336 29.9881 32.5336 19.8457 26.2921 13.6042C23.2364 10.5485 19.2704 8.9231 14.9794 8.9231C10.6884 8.9231 6.65743 10.6135 3.66672 13.6042C0.610992 16.6599 -1.01439 20.6259 -1.01439 24.9169C-1.01439 29.2079 0.676008 33.2389 3.66672 36.2296C5.22709 37.79 5.22709 40.2606 3.66672 41.8209C2.10635 43.3813 -0.364244 43.3813 -1.92462 41.8209C-6.41068 37.3349 -8.94629 31.2884 -8.94629 24.9169C-8.94629 18.5454 -6.4757 12.564 -1.92462 8.01288C2.56145 3.52681 8.60789 0.991211 14.9794 0.991211C21.3509 0.991211 27.3324 3.4618 31.8834 8.01288C41.1807 17.3101 41.1807 32.4587 31.8834 41.8209C31.1033 42.6011 30.128 42.9912 29.0878 42.9912Z" fill="#050023"/>
<path opacity="0.5" d="M22.066 36.6197C21.0908 36.6197 20.0505 36.2296 19.2703 35.4494C17.71 33.889 17.71 31.4184 19.2703 29.8581C20.4406 28.6878 21.0257 27.1924 21.0257 25.567C21.0257 23.9417 20.3756 22.4463 19.2703 21.276C18.1 20.1057 16.6047 19.5206 14.9793 19.5206C13.3539 19.5206 11.8586 20.1708 10.6883 21.276C9.51801 22.4463 8.93286 23.9417 8.93286 25.567C8.93286 27.1924 9.58302 28.6878 10.6883 29.8581C12.2487 31.4184 12.2487 33.889 10.6883 35.4494C9.12792 37.0098 6.65732 37.0098 5.09695 35.4494C2.49633 32.8488 1.00098 29.3379 1.00098 25.6321C1.00098 21.9262 2.43132 18.4153 5.09695 15.8147C7.69757 13.2141 11.2084 11.7188 14.9143 11.7188C18.6202 11.7188 22.131 13.1491 24.7316 15.8147C27.3323 18.4153 28.8276 21.9262 28.8276 25.6321C28.8276 29.3379 27.3973 32.8488 24.7316 35.4494C24.0815 36.2296 23.0412 36.6197 22.066 36.6197Z" fill="#050023"/>
</g>
</svg>
