<svg width="45" height="43" viewBox="0 0 45 43" fill="none" xmlns="http://www.w3.org/2000/svg">
<g opacity="0.8">
<g opacity="0.4">
<path opacity="0.5" d="M2.96639 21.9563C3.61172 21.0421 4.36461 20.2354 5.22505 19.4825L7.96771 17.2239L16.6259 9.96387C17.0024 10.5016 17.4326 10.9856 17.9704 11.4159L22.5415 15.2879L14.8513 21.6874L10.065 25.7207C9.63482 26.0972 9.25838 26.5274 8.98949 27.0114C7.91394 28.8936 8.12905 31.3674 9.79616 32.9807C11.5708 34.7554 14.421 34.8092 16.4108 33.2496L22.5415 38.4123L21.4659 39.3265C16.1419 43.79 8.12905 43.1447 3.55794 37.9283C-0.367829 33.3572 -0.421606 26.7425 2.96639 21.9563Z" fill="#050023"/>
<path opacity="0.5" d="M22.5415 5.01655L28.0806 0.337891C30.4468 3.13433 30.5006 7.11388 28.4571 9.9641L22.5415 5.01655Z" fill="#050023"/>
<path opacity="0.5" d="M22.5415 28.1414L30.1779 21.6881L33.4584 18.9455C34.5339 18.0312 35.8246 17.4397 37.169 17.2246C39.8579 16.7406 42.7081 17.6548 44.5904 19.9135L42.1704 21.957L36.1473 27.0121L28.6722 33.2503C28.6184 33.2503 28.5646 33.1965 28.5646 33.1965L22.5415 28.1414Z" fill="#050023"/>
<path opacity="0.5" d="M16.9485 0.337891L22.4876 5.01655L28.4031 10.0179L37.0614 17.2779C35.7707 17.493 34.48 18.0845 33.3507 18.9988L30.0703 21.7414L22.5414 15.2881L17.9703 11.4161C17.4325 10.9859 17.0023 10.5019 16.6258 9.9641C14.5285 7.11388 14.5823 3.13433 16.9485 0.337891Z" fill="#050023"/>
<path opacity="0.5" d="M8.98975 27.0652C9.25863 26.5812 9.63508 26.151 10.0653 25.7745L14.8515 21.7412L22.4879 28.1945L28.5648 33.1959C28.6186 33.2496 28.6186 33.2496 28.6724 33.3034C30.6084 34.863 33.5124 34.8092 35.287 33.0345C36.9541 31.4212 37.1693 28.9474 36.0937 27.0652L42.1168 22.0101C45.451 26.7425 45.451 33.3572 41.4715 37.9283C36.9004 43.1985 28.9413 43.8438 23.5635 39.3265L22.4879 38.4123L16.3573 33.2496L8.98975 27.0652Z" fill="#050023"/>
<path opacity="0.5" d="M0.492676 19.9135C2.3749 17.6548 5.22511 16.7406 7.914 17.2246L5.17134 19.4832C4.31089 20.2361 3.558 21.0428 2.91267 21.957L0.492676 19.9135Z" fill="#050023"/>
</g>
</g>
</svg>
