<svg width="38" height="43" viewBox="0 0 38 43" fill="none" xmlns="http://www.w3.org/2000/svg">
<g opacity="0.4">
<path opacity="0.5" d="M30.5109 33.7809L32.3068 35.5769L28.7662 39.1175C24.9177 42.966 18.6575 42.966 14.809 39.1175L3.67397 27.9825C-0.174528 24.134 -0.174528 17.8738 3.67397 14.0253L7.21461 10.4847L10.1394 13.4095C11.1657 14.4358 12.6025 14.9489 14.0906 14.8976C14.655 14.8976 15.3221 15.0002 15.9892 15.2055C18.1443 15.8726 20.8126 17.5146 23.2757 19.9776C25.7387 22.4407 27.3807 25.109 28.0478 27.2641C28.2018 27.8799 28.3044 28.4443 28.3557 28.9062C28.407 30.7534 29.228 32.4981 30.5109 33.7809ZM18.0417 10.8439C20.4021 10.6899 24.0454 12.5885 27.3294 15.8726C30.4082 18.9514 32.2555 22.338 32.4095 24.6985C32.5121 26.5457 33.2305 28.2904 34.5133 29.6245L36.4119 31.5231L39.9525 27.9825C43.801 24.134 43.801 17.8738 39.9525 14.0253L28.8175 2.89028C24.969 -0.958219 18.7088 -0.958219 14.8603 2.89028L11.3197 6.43092L14.1932 9.30445C15.2195 10.382 16.6049 10.9465 18.0417 10.8439Z" fill="#050023"/>
<path opacity="0.5" d="M28.3557 28.9069C28.3557 28.3937 28.2531 27.8293 28.0478 27.2648C27.3807 25.1097 25.7387 22.4414 23.2757 19.9783C20.8126 17.5153 18.1443 15.8733 15.9892 15.2062C15.2708 15.0009 14.655 14.8983 14.0906 14.8983C12.6025 14.9496 11.217 14.4365 10.1394 13.4102L7.21461 10.4854L3.67397 14.026C-0.174528 17.8745 -0.174528 24.1347 3.67397 27.9832L14.809 39.1182C18.6575 42.9667 24.9177 42.9667 28.7662 39.1182L32.3068 35.5776L30.5109 33.7816C29.228 32.4988 28.407 30.7541 28.3557 28.9069Z" fill="#050023"/>
</g>
</svg>
