<svg width="43" height="43" viewBox="0 0 43 43" fill="none" xmlns="http://www.w3.org/2000/svg">
<g opacity="0.4">
<path opacity="0.5" d="M30.4933 33.7809L32.2892 35.5769L28.7486 39.1175C24.9001 42.966 18.6399 42.966 14.7914 39.1175L3.6564 27.9825C-0.192106 24.134 -0.192106 17.8738 3.6564 14.0253L7.19703 10.4847L10.1219 13.4095C11.1481 14.4358 12.5849 14.9489 14.073 14.8976C14.6374 14.8976 15.3045 15.0002 15.9716 15.2055C18.1268 15.8726 20.7951 17.5146 23.2581 19.9776C25.7211 22.4407 27.3632 25.109 28.0302 27.2641C28.1842 27.8799 28.2868 28.4443 28.3381 28.9062C28.3894 30.7534 29.2104 32.4981 30.4933 33.7809ZM18.0241 10.8439C20.3845 10.6899 24.0278 12.5885 27.3118 15.8726C30.3906 18.9514 32.2379 22.338 32.3919 24.6985C32.4945 26.5457 33.2129 28.2904 34.4957 29.6245L36.3943 31.5231L39.9349 27.9825C43.7834 24.134 43.7834 17.8738 39.9349 14.0253L28.7999 2.89028C24.9514 -0.958219 18.6912 -0.958219 14.8427 2.89028L11.3021 6.43092L14.1756 9.30445C15.2019 10.382 16.5874 10.9465 18.0241 10.8439Z" fill="#050023"/>
<path opacity="0.5" d="M28.3381 28.9069C28.3381 28.3937 28.2355 27.8293 28.0302 27.2648C27.3632 25.1097 25.7211 22.4414 23.2581 19.9783C20.7951 17.5153 18.1268 15.8733 15.9716 15.2062C15.2532 15.0009 14.6374 14.8983 14.073 14.8983C12.5849 14.9496 11.1994 14.4365 10.1219 13.4102L7.19703 10.4854L3.6564 14.026C-0.192106 17.8745 -0.192106 24.1347 3.6564 27.9832L14.7914 39.1182C18.6399 42.9667 24.9001 42.9667 28.7486 39.1182L32.2892 35.5776L30.4933 33.7816C29.2104 32.4988 28.3894 30.7541 28.3381 28.9069Z" fill="#050023"/>
</g>
</svg>
