<svg width="44" height="43" viewBox="0 0 44 43" fill="none" xmlns="http://www.w3.org/2000/svg">
<g opacity="0.4">
<path opacity="0.5" d="M29.3683 25.9488L25.1931 30.124L21.6641 33.6529L13.0653 42.2518C12.0712 43.2459 10.4807 43.2459 9.53633 42.2518C9.03929 41.7547 8.79077 41.1086 8.79077 40.4624C8.79077 39.8163 9.03929 39.1701 9.53633 38.6731L18.1352 30.0743L21.6641 26.5453L25.8393 22.3701L29.3683 25.9488Z" fill="#050023"/>
<path opacity="0.5" d="M43.0865 11.2372C43.0865 11.8833 42.838 12.5295 42.3409 13.0265L32.8972 22.4703L29.3682 18.9413L38.812 9.49752C39.806 8.50343 41.3469 8.50343 42.3409 9.49752C42.838 9.94485 43.0865 10.591 43.0865 11.2372Z" fill="#050023"/>
<path opacity="0.5" d="M35.3824 3.53306C35.3824 4.17921 35.1339 4.82535 34.6369 5.3224L17.489 22.4703L13.96 18.9413L18.1351 14.7662L21.6641 11.2372L31.1079 1.79341C32.102 0.799331 33.6428 0.799331 34.6369 1.79341C35.1339 2.24075 35.3824 2.8869 35.3824 3.53306Z" fill="#050023"/>
<path opacity="0.5" d="M13.96 25.9488L5.36123 34.5476C4.36714 35.5417 2.82631 35.5417 1.83223 34.5476C1.33519 34.0506 1.08667 33.4044 1.08667 32.7583C1.08667 32.1121 1.33519 31.466 1.83223 30.9689L10.431 22.3701L13.96 25.9488Z" fill="#050023"/>
<path opacity="0.5" d="M21.6641 11.1874L18.1352 14.7164L8.69136 5.27261C7.69728 4.27852 7.69728 2.73769 8.69136 1.74361C9.1884 1.24657 9.83456 0.998047 10.4807 0.998047C11.1269 0.998047 11.773 1.24657 12.2701 1.74361L21.6641 11.1874Z" fill="#050023"/>
<path opacity="0.5" d="M41.4962 34.5986C40.9991 35.0956 40.353 35.3441 39.7068 35.3441C39.0607 35.3441 38.4145 35.0956 37.9175 34.5986L21.6145 18.2956L25.1435 14.7666L29.3186 18.9418L32.8476 22.4707L41.4465 31.0696C42.4902 32.0139 42.4902 33.6045 41.4962 34.5986Z" fill="#050023"/>
<path opacity="0.5" d="M21.6642 26.5956L18.1352 30.1246L0.987261 12.9767C-0.0068215 11.9826 -0.0068215 10.3921 0.987261 9.44771C1.4843 8.95067 2.13046 8.70215 2.77661 8.70215C3.42276 8.70215 4.06892 8.95067 4.56596 9.44771L14.0097 18.8915L17.5387 22.4205L21.6642 26.5956Z" fill="#050023"/>
<path opacity="0.5" d="M33.8416 42.2518C33.3445 42.7489 32.6984 42.9974 32.0522 42.9974C31.4061 42.9974 30.7599 42.7489 30.2629 42.2518L21.6641 33.653L25.1931 30.124L33.8416 38.7228C34.786 39.7169 34.786 41.3075 33.8416 42.2518Z" fill="#050023"/>
</g>
</svg>
