<svg width="43" height="43" viewBox="0 0 43 43" fill="none" xmlns="http://www.w3.org/2000/svg">
<g opacity="0.4">
<path opacity="0.5" d="M29.7633 33.7819L31.5593 35.5779L28.0187 39.1185C24.1702 42.967 17.9099 42.967 14.0614 39.1185L2.92642 27.9835C-0.922086 24.135 -0.922086 17.8748 2.92642 14.0263L6.46705 10.4856L9.39189 13.4105C10.4182 14.4368 11.8549 14.9499 13.343 14.8986C13.9075 14.8986 14.5745 15.0012 15.2416 15.2065C17.3968 15.8735 20.0651 17.5156 22.5281 19.9786C24.9912 22.4416 26.6332 25.1099 27.3003 27.2651C27.4542 27.8809 27.5568 28.4453 27.6081 28.9071C27.6594 30.7544 28.4805 32.4991 29.7633 33.7819ZM17.2942 10.8448C19.6546 10.6909 23.2978 12.5895 26.5819 15.8735C29.6607 18.9523 31.508 22.339 31.6619 24.6994C31.7645 26.5467 32.4829 28.2914 33.7657 29.6255L35.6643 31.5241L39.205 27.9835C43.0535 24.135 43.0535 17.8748 39.205 14.0263L28.07 2.89126C24.2215 -0.957243 17.9612 -0.957243 14.1127 2.89126L10.5721 6.43189L13.4457 9.30543C14.4719 10.383 15.8574 10.9475 17.2942 10.8448Z" fill="#050023"/>
<path opacity="0.5" d="M27.6081 28.9069C27.6081 28.3937 27.5055 27.8293 27.3003 27.2648C26.6332 25.1097 24.9912 22.4414 22.5281 19.9783C20.0651 17.5153 17.3968 15.8733 15.2416 15.2062C14.5232 15.0009 13.9075 14.8983 13.343 14.8983C11.8549 14.9496 10.4695 14.4365 9.39189 13.4102L6.46705 10.4854L2.92642 14.026C-0.922086 17.8745 -0.922086 24.1347 2.92642 27.9832L14.0614 39.1182C17.9099 42.9667 24.1702 42.9667 28.0187 39.1182L31.5593 35.5776L29.7633 33.7816C28.4805 32.4988 27.6594 30.7541 27.6081 28.9069Z" fill="#050023"/>
</g>
</svg>
