<svg width="43" height="43" viewBox="0 0 43 43" fill="none" xmlns="http://www.w3.org/2000/svg">
<g opacity="0.4">
<path opacity="0.5" d="M13.0252 21.8263C11.037 23.8559 9.753 26.5896 9.5459 29.5719C10.6642 30.1103 11.9483 30.4417 13.2737 30.4417C13.2737 27.9565 14.3506 25.6784 16.0489 24.1458C14.9305 23.5245 13.895 22.7375 13.0252 21.8263ZM16.0489 19.5482C16.6702 20.1281 17.3743 20.6251 18.1613 20.9979C18.2027 20.1695 18.3684 19.3411 18.5755 18.5127C17.7057 18.7612 16.8773 19.0926 16.0489 19.5482ZM25.2441 18.5127C25.4512 19.2997 25.6169 20.1281 25.6583 20.9979C26.4453 20.6251 27.1494 20.1281 27.7707 19.5482C26.9838 19.0926 26.1139 18.7612 25.2441 18.5127Z" fill="#050023"/>
<path opacity="0.5" d="M34.3151 30.4421C34.3151 31.6019 34.1494 32.7202 33.8594 33.7557C32.4097 38.9747 27.605 42.8267 21.9305 42.8267C16.2559 42.8267 11.4512 38.9747 10.0015 33.7557C11.037 34.0457 12.1553 34.2113 13.3151 34.2113C13.605 34.2113 13.895 34.2113 14.1849 34.1699C15.5932 37.0693 18.534 39.0575 21.9305 39.0575C25.3269 39.0575 28.3091 37.0693 29.676 34.1699C30.2145 33.0516 30.5458 31.7676 30.5458 30.4421C30.5458 27.9569 29.4689 25.6788 27.7707 24.1463C28.889 23.525 29.9245 22.7794 30.7944 21.8682C32.7825 23.8977 34.0665 26.6315 34.2736 29.6137C34.2736 29.8622 34.3151 30.1522 34.3151 30.4421Z" fill="#050023"/>
<path opacity="0.5" d="M34.274 14.0806C34.0669 17.1043 32.7829 19.7966 30.7947 21.8262C29.9249 22.7374 28.8894 23.5244 27.7711 24.1043C26.9841 24.5185 26.1143 24.8913 25.2444 25.1398C24.4575 25.3469 23.629 25.5126 22.7592 25.554C22.4693 25.554 22.1793 25.5954 21.8894 25.5954C21.5995 25.5954 21.3095 25.5954 21.0196 25.554C20.1498 25.5126 19.3214 25.3469 18.5344 25.1398C17.6646 24.8913 16.7947 24.5599 16.0077 24.1043C14.8894 23.483 13.8539 22.7374 12.9841 21.8262C10.9959 19.7966 9.7119 17.0629 9.5048 14.0806C9.5048 13.7907 9.46338 13.5007 9.46338 13.2108C9.46338 12.051 9.62906 10.9327 9.919 9.89718C11.3687 4.67825 16.1734 0.826172 21.848 0.826172C27.5225 0.826172 32.3273 4.67825 33.777 9.89718C32.7415 9.60724 31.6231 9.44156 30.4634 9.44156C30.1734 9.44156 29.8835 9.44156 29.5935 9.48298C28.1853 6.58358 25.2444 4.5954 21.848 4.5954C18.4515 4.5954 15.4693 6.58358 14.1024 9.48298C13.564 10.6013 13.2326 11.8853 13.2326 13.2108C13.2326 15.696 14.3095 17.9327 16.0077 19.5066C16.6291 20.0865 17.3332 20.5836 18.1202 20.9563C19.2385 21.4948 20.5225 21.8262 21.848 21.8262C23.1734 21.8262 24.4575 21.5362 25.5758 20.9563C26.3628 20.5836 27.0669 20.0865 27.6882 19.5066C29.3864 17.9327 30.4634 15.696 30.4634 13.2108C31.8716 13.2108 33.1557 13.5421 34.274 14.0806Z" fill="#050023"/>
<path opacity="0.5" d="M14.1433 9.4834C13.6048 10.6017 13.2734 11.8858 13.2734 13.2112C15.7586 13.2112 17.9953 14.2881 19.5693 15.9449C20.1906 14.8266 20.9776 13.7911 21.8888 12.9213C19.9007 10.9745 17.1669 9.6905 14.1433 9.4834ZM22.7586 25.5958C23.1314 26.3828 23.6285 27.0869 24.2083 27.7082C24.6225 26.9213 24.9953 26.0514 25.2438 25.1816C24.4569 25.3887 23.6285 25.513 22.7586 25.5958Z" fill="#050023"/>
<path opacity="0.5" d="M25.6585 20.9978C24.5401 21.5362 23.2561 21.8676 21.9307 21.8676C21.9307 20.5421 22.2206 19.2581 22.8005 18.1398C23.1733 17.3528 23.6703 16.6486 24.2502 16.0273C24.6644 16.8143 25.0372 17.6842 25.2857 18.554C25.4514 19.2995 25.6171 20.1279 25.6585 20.9978Z" fill="#050023"/>
<path opacity="0.5" d="M21.9307 30.7314C19.9011 32.7195 17.1673 34.0036 14.1851 34.2107C13.8952 34.2107 13.6052 34.2521 13.3153 34.2521C12.1555 34.2521 11.0372 34.0864 10.0017 33.7965C4.78273 32.3468 0.930664 27.542 0.930664 21.8675C0.930664 16.1929 4.78273 11.3882 10.0017 9.93848C9.71172 10.974 9.54605 12.0923 9.54605 13.2521C9.54605 13.542 9.54604 13.832 9.58746 14.1219C6.68806 15.5302 4.6999 18.471 4.6999 21.8675C4.6999 25.2639 6.68806 28.2462 9.58746 29.613C10.7058 30.1515 11.9898 30.4828 13.3153 30.4828C15.8005 30.4828 18.0372 29.4059 19.6111 27.7077C20.2324 28.8261 21.0194 29.8615 21.9307 30.7314Z" fill="#050023"/>
<path opacity="0.5" d="M30.5461 30.4414C30.5461 31.7669 30.2561 33.0509 29.6763 34.1692C26.6526 33.9621 23.9603 32.6781 21.9307 30.6899C21.0195 29.8201 20.2325 28.7846 19.6112 27.6663C19.197 26.8793 18.8242 26.0095 18.5757 25.1396C19.3627 25.3467 20.1911 25.5124 21.0609 25.5538C21.3508 25.5538 21.6408 25.5953 21.9307 25.5953C22.2206 25.5953 22.5106 25.5953 22.8005 25.5538C23.1733 26.3408 23.6704 27.045 24.2502 27.6663C25.7828 29.4059 28.0195 30.4414 30.5461 30.4414Z" fill="#050023"/>
<path opacity="0.5" d="M42.9309 21.8266C42.9309 27.5011 39.0789 32.3059 33.8599 33.7556C34.1499 32.7201 34.3155 31.6017 34.3155 30.442C34.3155 30.152 34.3155 29.8621 34.2741 29.6136C37.1735 28.2053 39.1617 25.2645 39.1617 21.868C39.1617 18.4716 37.1735 15.4893 34.2741 14.1224C33.1558 13.584 31.8718 13.2526 30.5463 13.2526C28.0611 13.2526 25.8244 14.3295 24.2505 16.0278C23.6706 16.6491 23.1735 17.3532 22.8008 18.1402C22.2623 19.2585 21.9309 20.5426 21.9309 21.868C20.6055 21.868 19.3215 21.5781 18.2031 20.9982C18.2445 20.1698 18.4102 19.3414 18.6173 18.513C18.8658 17.6432 19.1972 16.7733 19.6528 15.9863C20.2741 14.868 21.0611 13.8325 21.9724 12.9627C24.0019 10.9745 26.7357 9.69049 29.7179 9.52481C30.0079 9.52481 30.2978 9.4834 30.5877 9.4834C31.7475 9.4834 32.8658 9.64907 33.9013 9.93901C39.0789 11.3473 42.9309 16.152 42.9309 21.8266Z" fill="#050023"/>
<path opacity="0.5" d="M22.8003 25.5949C23.1731 26.3818 23.6701 27.086 24.25 27.7073C24.6642 26.9203 25.037 26.0505 25.2855 25.1807C24.4985 25.3878 23.6701 25.512 22.8003 25.5949Z" fill="#050023"/>
<path opacity="0.5" d="M25.7 20.9978C24.5816 21.5362 23.2976 21.8676 21.9722 21.8676C21.9722 20.5421 22.2621 19.2581 22.842 18.1398C23.2148 17.3528 23.7118 16.6486 24.2917 16.0273C24.7059 16.8143 25.0787 17.6842 25.3272 18.554C25.4929 19.2995 25.6585 20.1279 25.7 20.9978Z" fill="#050023"/>
<path opacity="0.5" d="M16.0905 24.1463C14.9721 23.525 13.9366 22.7794 13.0668 21.8682C11.9071 23.0693 10.9958 24.519 10.3745 26.093C11.3686 27.0042 12.4455 27.7912 13.6053 28.4125C14.0195 26.7143 14.8893 25.2646 16.0905 24.1463Z" fill="#050023"/>
<path opacity="0.5" d="M27.8125 24.1457C29.0965 25.3055 30.0078 26.8794 30.3806 28.6191C31.5403 27.9978 32.6587 27.2108 33.6527 26.341C33.0729 24.6427 32.0788 23.1102 30.8362 21.8262C29.9664 22.7374 28.9308 23.5244 27.8125 24.1457Z" fill="#050023"/>
<path opacity="0.5" d="M24.2502 27.7073C23.6704 27.086 23.1733 26.3818 22.8005 25.5949C22.5106 25.5949 22.2206 25.6363 21.9307 25.6363C21.6408 25.6363 21.3508 25.6363 21.0609 25.5949C20.1911 25.5534 19.3627 25.3878 18.5757 25.1807C18.8242 26.0505 19.1556 26.9203 19.6112 27.7073C20.2325 28.8256 21.0195 29.8611 21.9307 30.731C22.055 30.8552 22.2206 30.9795 22.3449 31.1037L24.913 28.37C24.7059 28.1629 24.4988 27.9144 24.2502 27.7073Z" fill="#050023"/>
<path opacity="0.5" d="M19.6528 15.9861C19.2386 16.7731 18.8658 17.6429 18.6173 18.5128C18.4102 19.2997 18.2445 20.1281 18.2031 20.998C19.3215 21.5364 20.6055 21.8678 21.9309 21.8678C21.9309 20.5423 22.2209 19.2583 22.8008 18.14C23.0079 17.7258 23.215 17.353 23.5049 16.9802L20.0256 15.4062C19.9014 15.5719 19.7771 15.779 19.6528 15.9861Z" fill="#050023"/>
<path opacity="0.5" d="M29.7175 9.48304C30.0074 9.48304 30.2974 9.44161 30.5873 9.44161C31.7471 9.44161 32.8654 9.6073 33.9009 9.89724C33.3625 7.95049 32.327 6.16943 31.0015 4.71973L26.4453 5.83806C27.8536 6.7493 29.0134 7.99191 29.7175 9.48304Z" fill="#050023"/>
<path opacity="0.5" d="M30.5873 13.2109C30.5873 15.1577 29.966 16.9387 28.8477 18.3884L32.4512 19.7967C33.4867 18.1399 34.1494 16.1932 34.3151 14.0807C33.1968 13.5423 31.9127 13.2109 30.5873 13.2109Z" fill="#050023"/>
<path opacity="0.5" d="M13.3154 13.2106C15.2622 13.2106 17.0847 13.8734 18.5344 14.9503C19.0314 13.9562 19.2799 12.7964 19.2799 11.5952C19.2799 11.3467 19.2799 11.1396 19.2385 10.9325C17.706 10.1041 16.0077 9.56567 14.1853 9.44141C13.6468 10.6012 13.3154 11.8852 13.3154 13.2106Z" fill="#050023"/>
<path opacity="0.5" d="M9.58764 14.0809C9.58764 13.7909 9.54622 13.501 9.54622 13.2111C9.54622 12.0513 9.7119 10.933 10.0018 9.89746C7.59947 10.5602 5.48705 11.9685 3.91309 13.7909C4.28587 15.1164 5.03143 16.3176 6.02551 17.2702C6.89534 15.9034 8.09651 14.785 9.58764 14.0809Z" fill="#050023"/>
<path opacity="0.5" d="M13.3567 30.4413C13.3567 28.4945 14.0194 26.7135 15.0964 25.2638C14.0194 24.6839 12.7768 24.3525 11.4928 24.3525C11.41 24.3525 11.2857 24.3525 11.2029 24.3525C10.333 25.9265 9.75317 27.7076 9.62891 29.5715C10.7472 30.1514 12.0313 30.4413 13.3567 30.4413Z" fill="#050023"/>
<path opacity="0.5" d="M14.1854 34.1691C13.8954 34.1691 13.6055 34.2105 13.3156 34.2105C12.1558 34.2105 11.0375 34.0448 10.002 33.7549C10.5818 35.8673 11.7416 37.7726 13.2741 39.3052C14.5996 38.9738 15.8008 38.2697 16.7534 37.3584C15.7179 36.53 14.8067 35.4531 14.1854 34.1691Z" fill="#050023"/>
<path opacity="0.5" d="M23.7533 32.1394C25.4929 33.2992 27.5225 34.0033 29.7178 34.169C30.2562 33.0507 30.5876 31.7666 30.5876 30.4412C28.3509 30.4412 26.2799 29.5714 24.7474 28.1631C24.1261 29.2814 23.7533 30.5655 23.7533 31.9323C23.7119 32.0152 23.7533 32.098 23.7533 32.1394Z" fill="#050023"/>
<path opacity="0.5" d="M34.3151 29.6133C34.3151 29.9032 34.3565 30.1932 34.3565 30.4417C34.3565 31.6015 34.1908 32.7198 33.9009 33.7553C35.7648 33.2168 37.463 32.2642 38.8713 31.0216C38.7056 29.6133 38.1257 28.2879 37.2973 27.2109C36.4689 28.205 35.4748 29.0334 34.3151 29.6133Z" fill="#050023"/>
</g>
</svg>
