<svg width="43" height="43" viewBox="0 0 43 43" fill="none" xmlns="http://www.w3.org/2000/svg">
<g opacity="0.4">
<path opacity="0.5" d="M29.1864 25.9488L25.0113 30.124L21.4823 33.6529L12.8834 42.2518C11.8894 43.2459 10.2988 43.2459 9.35445 42.2518C8.85741 41.7547 8.60889 41.1086 8.60889 40.4624C8.60889 39.8163 8.85741 39.1701 9.35445 38.6731L17.9533 30.0743L21.4823 26.5453L25.6574 22.3701L29.1864 25.9488Z" fill="#050023"/>
<path opacity="0.5" d="M42.9046 11.2372C42.9046 11.8833 42.6561 12.5295 42.1591 13.0265L32.7153 22.4703L29.1863 18.9413L38.6301 9.49752C39.6241 8.50343 41.165 8.50343 42.1591 9.49752C42.6561 9.94485 42.9046 10.591 42.9046 11.2372Z" fill="#050023"/>
<path opacity="0.5" d="M35.2006 3.53306C35.2006 4.17921 34.952 4.82535 34.455 5.3224L17.3071 22.4703L13.7781 18.9413L17.9532 14.7662L21.4822 11.2372L30.926 1.79341C31.9201 0.799331 33.4609 0.799331 34.455 1.79341C34.952 2.24075 35.2006 2.8869 35.2006 3.53306Z" fill="#050023"/>
<path opacity="0.5" d="M13.7782 25.9488L5.17934 34.5476C4.18526 35.5417 2.64443 35.5417 1.65035 34.5476C1.15331 34.0506 0.904785 33.4044 0.904785 32.7583C0.904785 32.1121 1.15331 31.466 1.65035 30.9689L10.2492 22.3701L13.7782 25.9488Z" fill="#050023"/>
<path opacity="0.5" d="M21.4823 11.1874L17.9533 14.7164L8.50948 5.27261C7.5154 4.27852 7.5154 2.73769 8.50948 1.74361C9.00652 1.24657 9.65267 0.998047 10.2988 0.998047C10.945 0.998047 11.5911 1.24657 12.0882 1.74361L21.4823 11.1874Z" fill="#050023"/>
<path opacity="0.5" d="M41.3143 34.5986C40.8172 35.0956 40.1711 35.3441 39.5249 35.3441C38.8788 35.3441 38.2326 35.0956 37.7356 34.5986L21.4326 18.2956L24.9616 14.7666L29.1368 18.9418L32.6658 22.4707L41.2646 31.0696C42.3084 32.0139 42.3084 33.6045 41.3143 34.5986Z" fill="#050023"/>
<path opacity="0.5" d="M21.4823 26.5956L17.9533 30.1246L0.805377 12.9767C-0.188706 11.9826 -0.188706 10.3921 0.805377 9.44771C1.30242 8.95067 1.94857 8.70215 2.59473 8.70215C3.24088 8.70215 3.88703 8.95067 4.38407 9.44771L13.8279 18.8915L17.3569 22.4205L21.4823 26.5956Z" fill="#050023"/>
<path opacity="0.5" d="M33.6597 42.2518C33.1627 42.7489 32.5165 42.9974 31.8703 42.9974C31.2242 42.9974 30.578 42.7489 30.081 42.2518L21.4822 33.653L25.0112 30.124L33.6597 38.7228C34.6041 39.7169 34.6041 41.3075 33.6597 42.2518Z" fill="#050023"/>
</g>
</svg>
