<svg width="70" height="37" viewBox="0 0 70 37" fill="none" xmlns="http://www.w3.org/2000/svg">
<g opacity="0.4">
<path opacity="0.5" d="M41.1864 19.9986C41.1864 20.5156 40.9796 21.0327 40.566 21.4463L31.156 30.8562C24.1761 37.8361 12.8015 37.8361 5.82156 30.8562C2.46086 27.4955 0.547852 22.9973 0.547852 18.189C0.547852 13.3806 2.40916 8.88242 5.82156 5.52173C9.18225 2.16103 13.6804 0.248047 18.4888 0.248047C23.2972 0.248047 27.7953 2.10933 31.156 5.52173C31.9833 6.34898 31.9833 7.64157 31.156 8.41712C30.3288 9.24436 29.0362 9.24436 28.2607 8.41712C25.6755 5.83197 22.1597 4.38429 18.4888 4.38429C14.8179 4.38429 11.3538 5.83197 8.71693 8.41712C6.13178 11.0023 4.68409 14.5181 4.68409 18.189C4.68409 21.8599 6.13178 25.324 8.71693 27.9608C14.094 33.338 22.8835 33.338 28.2607 27.9608L37.6706 18.5509C38.4979 17.7236 39.7904 17.7236 40.566 18.5509C40.9796 18.9645 41.1864 19.4815 41.1864 19.9986Z" fill="#050023"/>
<path opacity="0.5" d="M26.6577 12.0877C26.6577 12.6047 26.4509 13.1217 26.0373 13.5353C25.21 14.3626 23.9175 14.3626 23.1419 13.5353C20.5568 10.9502 16.3688 10.9502 13.8354 13.5353C12.5945 14.7762 11.9224 16.4307 11.9224 18.1886C11.9224 19.9465 12.5945 21.601 13.8354 22.8419C15.0763 24.0828 16.7308 24.7549 18.4887 24.7549C20.2466 24.7549 21.9011 24.0828 23.1419 22.8419C23.9692 22.0146 25.2618 22.0146 26.0373 22.8419C26.8645 23.6691 26.8645 24.9617 26.0373 25.7373C24.0209 27.7537 21.3323 28.8911 18.4887 28.8911C15.645 28.8911 12.9564 27.7537 10.94 25.7373C8.92359 23.7209 7.78613 21.0323 7.78613 18.1886C7.78613 15.3449 8.92359 12.6564 10.94 10.64C15.128 6.45204 21.9011 6.45204 26.089 10.64C26.5026 11.0536 26.6577 11.5706 26.6577 12.0877Z" fill="#050023"/>
<path opacity="0.5" d="M69.0541 18.1893C69.0541 22.9977 67.1928 27.4959 63.7804 30.8565C56.8005 37.8365 45.4258 37.8365 38.4459 30.8565C37.6187 30.0293 37.6187 28.7367 38.4459 27.9612C39.2732 27.1339 40.5657 27.1339 41.3413 27.9612C46.7184 33.3383 55.5079 33.3383 60.885 27.9612C63.4702 25.376 64.9178 21.8602 64.9178 18.1893C64.9178 14.5184 63.4702 11.0543 60.885 8.41746C58.2999 5.83231 54.7841 4.38463 51.1132 4.38463C47.4422 4.38463 43.9781 5.83231 41.3413 8.41746L31.9313 17.8791C31.1041 18.7064 29.8115 18.7064 29.036 17.8791C28.2087 17.0519 28.2087 15.7593 29.036 14.9837L38.4459 5.5738C45.4258 -1.40611 56.8005 -1.40611 63.7804 5.5738C67.1928 8.93449 69.0541 13.4326 69.0541 18.1893Z" fill="#050023"/>
<path opacity="0.5" d="M61.8159 18.1886C61.8159 21.0323 60.6785 23.7209 58.6621 25.7373C56.6456 27.7537 53.9571 28.8911 51.1134 28.8911C48.2697 28.8911 45.5812 27.7537 43.5648 25.7373C42.7375 24.91 42.7375 23.6174 43.5648 22.8419C44.392 22.0146 45.6846 22.0146 46.4601 22.8419C47.701 24.0828 49.3555 24.7549 51.1134 24.7549C52.8713 24.7549 54.5258 24.0828 55.7667 22.8419C57.0076 21.601 57.6797 19.9465 57.6797 18.1886C57.6797 16.4307 57.0076 14.7762 55.7667 13.5353C53.1815 10.9502 48.9936 10.9502 46.4601 13.5353C45.6329 14.3626 44.3403 14.3626 43.5648 13.5353C42.7375 12.7081 42.7375 11.4155 43.5648 10.64C47.7527 6.45204 54.5258 6.45204 58.7137 10.64C60.7302 12.6564 61.8159 15.3449 61.8159 18.1886Z" fill="#050023"/>
</g>
</svg>
