<svg width="48" height="43" viewBox="0 0 48 43" fill="none" xmlns="http://www.w3.org/2000/svg">
<g opacity="0.4">
<path opacity="0.5" d="M38.0873 42.9902C37.112 42.9902 36.0718 42.6001 35.2916 41.8199C33.7312 40.2596 33.7312 37.789 35.2916 36.2286C41.5331 29.9871 41.5331 19.8447 35.2916 13.6032C32.2359 10.5475 28.2699 8.92212 23.9789 8.92212C19.6879 8.92212 15.6569 10.6125 12.6662 13.6032C9.6105 16.659 7.98512 20.6249 7.98512 24.9159C7.98512 29.2069 9.67552 33.2379 12.6662 36.2286C14.2266 37.789 14.2266 40.2596 12.6662 41.8199C11.1059 43.3803 8.63527 43.3803 7.0749 41.8199C2.58883 37.3339 0.0532227 31.2874 0.0532227 24.9159C0.0532227 18.5444 2.52381 12.563 7.0749 8.01191C11.561 3.52584 17.6074 0.990234 23.9789 0.990234C30.3504 0.990234 36.3319 3.46082 40.883 8.01191C50.1802 17.3091 50.1802 32.4577 40.883 41.8199C40.1028 42.6001 39.1275 42.9902 38.0873 42.9902Z" fill="#050023"/>
<path opacity="0.5" d="M31.0655 36.6187C30.0903 36.6187 29.05 36.2286 28.2698 35.4484C26.7095 33.8881 26.7095 31.4175 28.2698 29.8571C29.4401 28.6868 30.0253 27.1915 30.0253 25.5661C30.0253 23.9407 29.3751 22.4453 28.2698 21.275C27.0996 20.1048 25.6042 19.5196 23.9788 19.5196C22.3534 19.5196 20.8581 20.1698 19.6878 21.275C18.5175 22.4453 17.9324 23.9407 17.9324 25.5661C17.9324 27.1915 18.5825 28.6868 19.6878 29.8571C21.2482 31.4175 21.2482 33.8881 19.6878 35.4484C18.1274 37.0088 15.6568 37.0088 14.0965 35.4484C11.4958 32.8478 10.0005 29.337 10.0005 25.6311C10.0005 21.9252 11.4308 18.4144 14.0965 15.8137C16.6971 13.2131 20.2079 11.7178 23.9138 11.7178C27.6197 11.7178 31.1305 13.1481 33.7311 15.8137C36.3318 18.4144 37.8271 21.9252 37.8271 25.6311C37.8271 29.337 36.3968 32.8478 33.7311 35.4484C33.081 36.2286 32.0407 36.6187 31.0655 36.6187Z" fill="#050023"/>
</g>
</svg>
