<svg width="53" height="36" viewBox="0 0 53 36" fill="none" xmlns="http://www.w3.org/2000/svg">
<g opacity="0.4">
<path opacity="0.5" d="M14.4043 4.11921H18.9002L26.4775 17.2028L28.7002 21.143L32.3879 27.4575L45.8756 4.11921H38.5508L40.7735 0.229492H52.5942L32.3879 35.2369L26.4775 25.0327L24.2043 21.143L14.4043 4.11921Z" fill="#050023"/>
<path opacity="0.5" d="M0.310547 0.229492H40.7736L38.5509 4.11921L28.7004 21.143L26.4777 17.2028L34.055 4.11921H7.07965L20.5673 27.4575L24.2045 21.143L26.4777 25.0327L20.5673 35.2369L0.310547 0.229492Z" fill="#050023"/>
<g opacity="0.5">
<g opacity="0.5">
<path opacity="0.5" d="M14.4043 4.11725H16.627L25.3157 19.1709L26.4775 21.1411L27.5889 23.0606L32.3879 31.3452L49.2096 2.14716H39.6621L40.7735 0.227539H52.5942L32.3879 35.2349L26.4775 25.0308L25.3157 23.0606L24.2043 21.1411L14.4043 4.11725Z" fill="#050023"/>
</g>
<path opacity="0.5" d="M16.627 4.11755H18.9002L26.4775 17.2011L27.5889 19.1712L28.7002 21.1414L32.3879 27.4558L45.8755 4.11755H38.5508L39.6621 2.14746H49.2096L32.3879 31.3455L27.5889 23.0609L26.4775 21.1414L25.3157 19.1712L16.627 4.11755Z" fill="#050023"/>
<path opacity="0.5" d="M0.310547 0.227539H40.7736L39.6623 2.14716L38.5509 4.11725L28.7004 21.1411L27.589 19.1709L36.2777 4.11725L37.3891 2.14716H3.6951L20.5673 31.3452L25.3158 23.0606L26.4777 25.0308L20.5673 35.2349L0.310547 0.227539Z" fill="#050023"/>
<path opacity="0.5" d="M3.69482 2.14746H37.3888L36.2775 4.11755L27.5887 19.1712L26.4774 17.2011L34.0548 4.11755H7.07938L20.5671 27.4558L24.2042 21.1414L25.3155 23.0609L20.5671 31.3455L3.69482 2.14746Z" fill="#050023"/>
</g>
<g opacity="0.5">
<path opacity="0.5" d="M38.5508 4.11725L40.7735 0.227539H48.4013L45.3199 4.11725H38.5508Z" fill="#050023"/>
<path opacity="0.5" d="M28.7002 21.1409L26.4775 17.2007L28.4477 13.7656L31.125 16.9481L28.7002 21.1409Z" fill="#050023"/>
<path opacity="0.5" d="M26.4774 25.0313L24.2042 21.1416L21.6279 25.587L23.8001 29.6282L26.4774 25.0313Z" fill="#050023"/>
</g>
<path opacity="0.5" d="M14.4043 4.11816H18.9002L22.2342 9.92747L18.193 10.7357L14.4043 4.11816Z" fill="#050023"/>
</g>
</svg>
