<svg width="44" height="43" viewBox="0 0 44 43" fill="none" xmlns="http://www.w3.org/2000/svg">
<g opacity="0.4">
<path opacity="0.5" d="M29.8226 25.9488L25.6475 30.124L22.1185 33.6529L13.5197 42.2518C12.5256 43.2459 10.9351 43.2459 9.99068 42.2518C9.49364 41.7547 9.24512 41.1086 9.24512 40.4624C9.24512 39.8163 9.49364 39.1701 9.99068 38.6731L18.5895 30.0743L22.1185 26.5453L26.2936 22.3701L29.8226 25.9488Z" fill="#050023"/>
<path opacity="0.5" d="M43.5406 11.2372C43.5406 11.8833 43.2921 12.5295 42.795 13.0265L33.3513 22.4703L29.8223 18.9413L39.2661 9.49752C40.2601 8.50343 41.801 8.50343 42.795 9.49752C43.2921 9.94485 43.5406 10.591 43.5406 11.2372Z" fill="#050023"/>
<path opacity="0.5" d="M35.8365 3.53306C35.8365 4.17921 35.588 4.82535 35.091 5.3224L17.9431 22.4703L14.4141 18.9413L18.5892 14.7662L22.1182 11.2372L31.562 1.79341C32.5561 0.799331 34.0969 0.799331 35.091 1.79341C35.588 2.24075 35.8365 2.8869 35.8365 3.53306Z" fill="#050023"/>
<path opacity="0.5" d="M14.4144 25.9488L5.81557 34.5476C4.82149 35.5417 3.28066 35.5417 2.28658 34.5476C1.78954 34.0506 1.54102 33.4044 1.54102 32.7583C1.54102 32.1121 1.78954 31.466 2.28658 30.9689L10.8854 22.3701L14.4144 25.9488Z" fill="#050023"/>
<path opacity="0.5" d="M22.1182 11.1874L18.5893 14.7164L9.14546 5.27261C8.15138 4.27852 8.15138 2.73769 9.14546 1.74361C9.64251 1.24657 10.2887 0.998047 10.9348 0.998047C11.581 0.998047 12.2271 1.24657 12.7242 1.74361L22.1182 11.1874Z" fill="#050023"/>
<path opacity="0.5" d="M41.95 34.5986C41.453 35.0956 40.8068 35.3441 40.1607 35.3441C39.5145 35.3441 38.8684 35.0956 38.3713 34.5986L22.0684 18.2956L25.5974 14.7666L29.7725 18.9418L33.3015 22.4707L41.9003 31.0696C42.9441 32.0139 42.9441 33.6045 41.95 34.5986Z" fill="#050023"/>
<path opacity="0.5" d="M22.1183 26.5956L18.5893 30.1246L1.44136 12.9767C0.44728 11.9826 0.44728 10.3921 1.44136 9.44771C1.9384 8.95067 2.58456 8.70215 3.23071 8.70215C3.87687 8.70215 4.52302 8.95067 5.02006 9.44771L14.4638 18.8915L17.9928 22.4205L22.1183 26.5956Z" fill="#050023"/>
<path opacity="0.5" d="M34.2957 42.2518C33.7986 42.7489 33.1525 42.9974 32.5063 42.9974C31.8602 42.9974 31.214 42.7489 30.717 42.2518L22.1182 33.653L25.6472 30.124L34.2957 38.7228C35.2401 39.7169 35.2401 41.3075 34.2957 42.2518Z" fill="#050023"/>
</g>
</svg>
