<svg width="36" height="40" viewBox="0 0 36 40" fill="none" xmlns="http://www.w3.org/2000/svg">
<circle cx="18" cy="20" r="18" fill="#3772FF"/>
<path fill-rule="evenodd" clip-rule="evenodd" d="M16.5022 21.4312C15.7398 21.4312 15.7398 21.4312 14.2152 21.9858C13.4528 22.5405 11.1658 23.6499 12.6905 24.7593C13.4528 25.314 17.2645 25.8686 18.0268 25.314C19.5515 25.314 24.1255 24.2046 24.8878 23.6499L25.6502 23.0952V22.5405C24.8878 22.5405 19.5515 22.5405 18.0268 22.5405C17.2645 22.5405 16.5022 22.5405 15.7398 22.5405C16.5022 21.9858 16.5022 21.9858 16.5022 21.4312Z" fill="white"/>
<path fill-rule="evenodd" clip-rule="evenodd" d="M21.4559 19.3247C22.5653 19.3247 23.12 19.3247 24.2293 18.77C26.4481 18.2153 30.3309 15.9966 28.6668 13.2232C25.3387 9.34036 14.5298 6.01225 11.2017 8.78568C9.53762 10.4497 10.0923 12.1138 11.2017 13.7779C12.8657 15.9966 13.1356 17.106 14.245 19.8794C15.909 24.3169 12.5809 27.645 9.8075 29.8637C9.25281 30.4184 8.14344 31.5278 9.25281 32.0825C9.8075 32.6372 12.0262 31.5278 12.5809 31.5278C15.3544 30.9731 18.6825 29.8637 20.9012 28.7544C21.4559 28.1997 21.4559 28.7544 22.0106 28.1997H21.4559C20.3465 28.1997 17.5731 29.3091 15.909 29.3091C15.3544 29.3091 14.245 29.8637 12.5809 29.8637C18.1278 24.8716 18.3536 18.77 15.0133 13.7779C14.5101 12.8792 14.5298 12.9089 13.9751 11.7995C13.715 11.0379 13.6648 10.5525 13.9751 10.4497C17.3032 9.89505 21.4559 11.0044 24.2293 12.1138C27.0028 13.2232 28.1121 14.8872 25.3387 16.5513C24.2293 17.6607 22.5653 18.2153 21.4559 19.3247Z" fill="white"/>
</svg>
